HIERARCHY
ROOT Hips
{
	OFFSET -3.958830 18.904000 13.208200
	CHANNELS 6 Xposition Yposition Zposition Zrotation Yrotation Xrotation 
	JOINT LHipJoint
	{
		OFFSET 0.000000 0.000000 0.000000
		CHANNELS 3 Zrotation Yrotation Xrotation
		JOINT LeftUpLeg
		{
			OFFSET 1.800000 -1.400000 0.085000
			CHANNELS 3 Zrotation Yrotation Xrotation
			JOINT LeftLeg
			{
				OFFSET 2.215000 -6.000000 0.000000
				CHANNELS 3 Zrotation Yrotation Xrotation
				JOINT LeftFoot
				{
					OFFSET 2.500000 -6.900000 0.000000
					CHANNELS 3 Zrotation Yrotation Xrotation
					JOINT LeftToeBase
					{
						OFFSET 0.200000 -0.500000 1.950000
						CHANNELS 3 Zrotation Yrotation Xrotation
						End Site
						{
							OFFSET 0.000000 0.000000 0.000000
						}
					}
				}
			}
		}
	}
	JOINT RHipJoint
	{
		OFFSET 0.000000 0.000000 0.000000
		CHANNELS 3 Zrotation Yrotation Xrotation
		JOINT RightUpLeg
		{
			OFFSET -1.800000 -1.400000 0.085000
			CHANNELS 3 Zrotation Yrotation Xrotation
			JOINT RightLeg
			{
				OFFSET -2.215000 -6.000000 0.000000
				CHANNELS 3 Zrotation Yrotation Xrotation
				JOINT RightFoot
				{
					OFFSET -2.500000 -6.900000 0.000000
					CHANNELS 3 Zrotation Yrotation Xrotation
					JOINT RightToeBase
					{
						OFFSET -0.200000 -0.500000 1.950000
						CHANNELS 3 Zrotation Yrotation Xrotation
						End Site
						{
							OFFSET 0.000000 0.000000 0.000000
						}
					}
				}
			}
		}
	}
	JOINT LowerBack
	{
		OFFSET 0.000000 0.000000 0.000000
		CHANNELS 3 Zrotation Yrotation Xrotation
		JOINT Spine
		{
			OFFSET -0.087000 1.940000 -0.288900
			CHANNELS 3 Zrotation Yrotation Xrotation
			JOINT Spine1
			{
				OFFSET 0.000000 1.950000 0.060000
				CHANNELS 3 Zrotation Yrotation Xrotation
				JOINT Neck
				{
					OFFSET 0.000000 0.000000 0.000000
					CHANNELS 3 Zrotation Yrotation Xrotation
					JOINT Neck1
					{
						OFFSET 0.000000 1.600000 0.340000
						CHANNELS 3 Zrotation Yrotation Xrotation
						JOINT Head
						{
							OFFSET 0.000000 1.667000 -0.240000
							CHANNELS 3 Zrotation Yrotation Xrotation
							End Site
							{
								OFFSET 0.000000 0.000000 0.000000
							}
						}
					}
				}
				JOINT LeftShoulder
				{
					OFFSET 0.000000 0.000000 0.000000
					CHANNELS 3 Zrotation Yrotation Xrotation
					JOINT LeftArm
					{
						OFFSET 2.700000 1.550000 -0.730000
						CHANNELS 3 Zrotation Yrotation Xrotation
						JOINT LeftForeArm
						{
							OFFSET 5.450000 0.000000 0.000000
							CHANNELS 3 Zrotation Yrotation Xrotation
							JOINT LeftHand
							{
								OFFSET 3.450000 0.000000 0.000000
								CHANNELS 3 Zrotation Yrotation Xrotation
								JOINT LeftHandIndex1
								{
									OFFSET 0.750000 0.000000 0.000000
									CHANNELS 3 Zrotation Yrotation Xrotation
									End Site
									{
										OFFSET 0.000000 0.000000 0.000000
									}
								}
							}
						}
					}
				}
				JOINT RightShoulder
				{
					OFFSET 0.000000 0.000000 0.000000
					CHANNELS 3 Zrotation Yrotation Xrotation
					JOINT RightArm
					{
						OFFSET -2.700000 1.550000 -0.730000
						CHANNELS 3 Zrotation Yrotation Xrotation
						JOINT RightForeArm
						{
							OFFSET -5.450000 0.000000 0.000000
							CHANNELS 3 Zrotation Yrotation Xrotation
							JOINT RightHand
							{
								OFFSET -3.450000 0.000000 0.000000
								CHANNELS 3 Zrotation Yrotation Xrotation
								JOINT RightHandIndex1
								{
									OFFSET -0.750000 0.000000 0.000000
									CHANNELS 3 Zrotation Yrotation Xrotation
									End Site
									{
										OFFSET 0.000000 0.000000 0.000000
									}
								}
							}
						}
					}
				}
			}
		}
	}
}
MOTION
Frames: 13
Frame Time: 0.016667
-0.224830 18.787130 -3.031390 3.484218 -10.709149 -41.644914 -14.021514 11.188010 4.256639 -3.246185 -1.170179 32.944370 -14.186739 8.720246 11.228432 -1.840683 10.808972 0.443256 7.129960 2.229100 4.628650 19.393052 -12.142779 2.521992 -9.514882 -2.698607 15.426448 4.173591 -8.061503 14.670932 -2.085834 -4.298534 9.597310 4.308190 -4.795440 0.716750 -6.790681 2.913830 -8.219907 5.637071 -2.390642 62.501340 -3.202143 0.813076 55.161240 -11.365382 14.755254 -7.465300 22.479593 -3.939521 41.488172 -7.340170 14.002910 -87.037540 24.461047 -57.317188 -17.438026 45.209840 -23.280133 -33.198667 63.750036 -5.702605 -13.781535 -5.941341 3.063948 2.576050 0.328040 0.301350 2.626000 4.687821 45.461092 29.086077 17.369878 42.162682 -36.831832 -38.866854 37.874413 -14.107890 -5.686734 -2.844544 0.339320 0.154240 -2.508230 -6.507380 
-0.218190 18.801030 -3.025970 3.566713 -10.730442 -42.142508 -14.053612 11.325160 4.320646 -3.338710 -0.977835 33.472609 -13.756162 8.671448 11.066808 -1.730053 10.832747 0.480245 7.130170 2.215780 4.614360 19.333693 -12.041491 2.569377 -9.613976 -2.658715 16.345687 4.022691 -7.982318 14.199762 -2.120204 -4.341102 9.568673 4.292480 -4.813620 0.776160 -6.658978 2.546194 -8.236684 5.401316 -1.992126 63.274693 -3.225895 0.850754 55.213353 -10.924465 14.643642 -7.830986 22.212079 -3.713668 41.502684 -7.994840 13.501750 -87.393090 24.236331 -57.359975 -15.542425 46.740569 -20.960140 -33.710108 65.572846 -9.230968 -15.058070 -5.913171 3.149964 2.551460 0.334290 0.328330 2.659060 3.810329 45.754521 28.929075 17.217728 42.361397 -36.229706 -39.945039 36.660884 -14.385542 -5.373971 -2.892900 0.384440 0.085880 -2.554170 -6.482130 
-0.204230 18.801890 -3.030250 3.892085 -10.870190 -43.128034 -14.221551 11.638337 4.391686 -3.477358 -0.335904 34.115486 -12.229201 8.538620 11.211308 -1.685658 10.818404 0.519313 7.113860 2.240370 4.617580 19.148591 -11.791420 2.589877 -9.724668 -2.456468 17.505932 3.867100 -7.920004 13.935837 -2.100167 -4.413535 9.554196 4.341700 -4.845040 0.816080 -6.159578 1.671189 -8.097509 3.428639 -0.835365 64.210851 -3.225773 1.911614 55.474203 -10.078062 15.044244 -7.718309 22.486455 -3.373494 40.220734 -10.193230 12.868360 -87.791130 23.982236 -57.118893 -13.617541 49.878415 -19.397599 -34.074019 67.086407 -10.477213 -15.219997 -5.927593 3.036918 2.549980 0.399580 0.374320 2.640230 0.833286 46.613064 28.530104 17.512912 41.865698 -36.490014 -40.849747 37.197972 -15.378034 -5.349570 -3.119881 0.376150 0.021390 -2.636370 -6.474340 
-0.195780 18.795630 -3.022790 4.219452 -11.322333 -43.889251 -14.378059 11.848090 4.434421 -3.609196 -0.121820 34.560321 -12.484760 8.917493 12.294075 -1.725022 11.050124 0.456326 7.105060 2.218530 4.670600 19.004158 -11.567781 2.575737 -9.561263 -2.328617 18.385123 3.379315 -7.844216 13.885183 -2.064846 -4.464523 9.561047 4.383230 -4.847460 0.834430 -5.737798 0.967756 -7.978323 1.779619 0.211833 64.391110 -3.061571 2.857807 55.698705 -9.156080 15.375213 -7.055966 22.921355 -2.845667 38.688737 -12.457220 12.360500 -87.725060 23.928213 -56.483967 -12.090993 51.399165 -18.123270 -33.794714 68.874184 -12.552402 -16.109518 -5.923320 2.866517 2.614210 0.465390 0.390550 2.609700 -2.093003 46.821869 27.287698 18.409597 41.693930 -37.638629 -39.828994 39.979776 -15.974273 -5.765729 -3.155228 0.299940 0.017870 -2.681980 -6.519750 
-0.197770 18.797920 -3.009820 4.620270 -11.555704 -44.509846 -14.588200 12.200975 4.487913 -3.375946 -0.013714 34.971414 -12.833241 9.122005 12.499149 -1.962427 11.409752 0.360344 7.079180 2.091150 4.783540 18.806469 -11.202519 2.547273 -9.195967 -2.071704 19.466528 2.396010 -7.691928 13.788987 -1.959452 -4.528438 9.619985 4.435540 -4.788090 0.852820 -5.161536 -0.223363 -7.905596 -0.410258 1.501432 64.261775 -2.360138 3.810895 56.269655 -8.552096 15.546447 -6.682942 22.988185 -2.281315 37.681270 -14.946120 11.475230 -87.555390 23.310029 -55.728241 -10.954093 51.773864 -16.739618 -33.205110 71.891597 -15.557595 -18.103464 -5.972061 2.532718 2.812010 0.593470 0.353350 2.545260 -4.254536 46.870080 26.132055 18.948190 41.615951 -38.375329 -39.623610 41.628951 -16.628965 -6.004067 -3.110400 0.071340 0.075760 -2.714220 -6.654460 
-0.200500 18.791530 -2.989810 4.684479 -11.647643 -44.741924 -14.726024 12.336885 4.466385 -3.015663 0.077134 35.270138 -12.886952 9.195467 12.614824 -2.099005 11.646699 0.289597 7.114530 2.035450 4.944330 18.703388 -11.006322 2.508226 -8.935015 -1.836897 19.953812 2.204419 -7.691660 14.055209 -1.932788 -4.609201 9.559041 4.495390 -4.799580 0.936150 -4.819284 -0.784062 -7.802997 -1.148289 2.151918 63.671348 -2.168519 4.408376 56.702118 -7.424679 16.192293 -5.692281 24.154109 -1.490122 34.728449 -17.613560 11.087670 -86.316910 22.419856 -55.344938 -9.460351 53.619722 -15.827563 -32.354171 73.963902 -17.985230 -19.504266 -5.940882 2.338180 2.927600 0.676660 0.390070 2.502640 -6.345355 46.323573 24.569657 20.607160 41.432047 -40.284687 -36.858498 45.774971 -17.099065 -6.656415 -3.098513 -0.026920 0.049750 -2.781500 -6.749540 
-0.202340 18.784130 -2.999350 5.419297 -11.741756 -44.994444 -14.951047 12.706473 4.466646 -3.099571 0.278828 34.558394 -12.822274 9.530790 14.095882 -2.403216 11.960537 0.173678 7.020080 1.865380 5.004720 18.503934 -10.697651 2.406304 -8.889829 -1.450996 19.776076 1.682961 -7.609628 14.619104 -1.754197 -4.614346 9.598138 4.543480 -4.728510 0.907470 -4.206561 -1.932353 -7.709923 -3.847405 3.815712 63.524715 -1.148928 5.980364 56.597762 -6.873449 16.840308 -4.928090 24.823244 -0.749272 32.145747 -20.042680 10.453370 -85.163010 20.544735 -55.094957 -8.749177 56.141283 -16.381841 -31.348127 75.141163 -20.109449 -20.420810 -5.956755 1.947500 3.096390 0.801110 0.304970 2.396230 -7.674498 45.981989 22.997185 21.787114 40.846895 -41.591707 -34.264330 48.715891 -17.308216 -7.166594 -2.983953 -0.292759 0.127620 -2.734450 -6.902170 
-0.203260 18.773790 -2.996720 5.610432 -11.290173 -44.927889 -15.203205 13.086292 4.422144 -2.710452 0.027798 33.731283 -13.055699 9.931057 15.653911 -2.750625 12.423633 0.039044 6.990780 1.621140 5.198590 18.294390 -10.322660 2.322383 -8.424221 -1.078877 19.852060 1.322196 -7.597139 14.761869 -1.603648 -4.632569 9.675766 4.544670 -4.652350 0.949740 -3.545941 -3.171717 -7.642644 -5.760306 5.079688 63.398006 -0.205314 7.328193 56.306572 -5.455548 17.738248 -4.192663 26.213960 -0.389877 29.438411 -23.440050 9.448000 -84.362010 17.749730 -55.273062 -7.989612 59.010348 -18.471156 -30.727437 76.256841 -22.249513 -21.375060 -5.983158 1.530995 3.349850 0.941610 0.215940 2.315850 -9.472522 45.634399 22.013487 24.746775 40.970805 -42.534292 -35.059079 51.356473 -19.762588 -7.494618 -2.988682 -0.575550 0.190400 -2.724280 -7.126250 
-0.210480 18.767060 -3.018950 5.497383 -10.603488 -45.108303 -15.333404 13.351808 4.365480 -1.943576 -0.268789 32.969937 -13.444209 10.367285 17.302714 -2.766567 12.632479 0.010385 7.017190 1.632720 5.253400 18.178845 -10.139657 2.255932 -8.120139 -0.904384 19.739893 1.186508 -7.625687 15.808001 -1.590072 -4.651268 9.693640 4.604710 -4.646290 0.979260 -3.197864 -3.865238 -7.601570 -6.808430 5.814895 63.765200 0.394342 7.751269 55.980111 -4.823025 17.984845 -3.741294 26.466635 0.091027 28.087114 -25.028300 9.240840 -83.855980 16.975540 -55.028283 -7.479779 60.053445 -18.469619 -30.203489 77.480165 -24.176185 -22.288462 -5.975722 1.375495 3.392920 1.001980 0.249120 2.341830 -10.935861 45.426341 21.107101 25.850472 40.769775 -43.373202 -33.546410 53.572242 -20.370764 -7.709565 -2.941089 -0.625580 0.209380 -2.794320 -7.154460 
-0.217220 18.764140 -3.020190 5.757407 -10.392472 -45.270653 -15.426727 13.500222 4.321986 -1.647511 -0.002635 32.683060 -13.338191 10.565550 18.021105 -2.804244 12.690482 -0.022964 6.964210 1.641570 5.198340 18.105277 -9.988721 2.226259 -8.134844 -0.677431 20.095224 1.040300 -7.529894 15.744589 -1.556706 -4.663816 9.682010 4.638550 -4.619740 0.940010 -2.968325 -4.325136 -7.593338 -7.836264 6.774628 62.935799 0.860631 8.461067 56.370443 -4.733400 18.167127 -3.358227 26.572852 0.329600 27.326239 -25.628550 9.343190 -82.697410 17.532611 -54.623372 -7.046950 60.554883 -18.415645 -29.737359 78.337534 -24.517306 -22.417162 -6.032881 1.293660 3.375380 1.039090 0.233430 2.323370 -12.816323 45.395407 20.859224 26.601902 40.491572 -43.605575 -33.451566 54.741644 -21.193785 -7.792148 -2.926703 -0.672080 0.254290 -2.756750 -7.152430 
-0.205500 18.744830 -3.015500 5.464577 -9.928218 -45.428239 -15.402970 13.471296 4.273226 -1.320581 0.142493 32.652079 -13.085353 10.711768 18.622449 -2.557239 12.560322 0.009800 6.975050 1.752460 5.139860 18.130169 -10.029145 2.239626 -8.207027 -0.687172 20.192471 1.383317 -7.515841 15.839033 -1.606295 -4.663336 9.600183 4.612460 -4.661170 0.955640 -3.037440 -4.176061 -7.559960 -7.148831 6.705898 62.879739 0.974056 7.981508 56.172693 -4.935273 18.188662 -2.864886 26.396384 0.242958 26.443455 -24.723560 9.731820 -81.380260 18.596568 -54.181386 -6.508813 61.018398 -18.036466 -29.240115 79.281254 -24.649996 -22.287376 -6.026989 1.504346 3.170220 0.992660 0.273890 2.339490 -13.444898 44.934867 20.300866 27.469641 39.718141 -44.117915 -29.777182 56.690533 -20.628533 -7.890297 -2.912891 -0.472020 0.170840 -2.763790 -7.018480 
-0.199530 18.744540 -3.007340 5.554803 -9.622288 -45.732943 -15.495658 13.606259 4.255823 -1.270961 0.415488 32.821615 -12.684018 10.774181 18.922833 -2.510138 12.602774 -0.015342 6.997730 1.765810 5.137740 18.060327 -9.874986 2.196183 -8.130447 -0.596032 20.591818 1.026902 -7.450309 16.135528 -1.632982 -4.665354 9.571968 4.589790 -4.654050 0.992350 -2.808773 -4.647065 -7.540933 -7.893592 7.195417 62.663876 1.516534 8.237450 56.312326 -4.954230 18.192464 -2.384938 26.055962 0.329622 25.589676 -24.536690 9.959090 -80.486530 18.184264 -53.736048 -6.187236 61.701947 -18.524320 -28.833545 80.443135 -25.223970 -22.748191 -6.039241 1.584115 3.125760 0.987800 0.273060 2.359500 -13.791684 44.550459 19.479004 27.945479 38.419319 -45.409847 -24.213965 59.620324 -19.700892 -8.171381 -2.841429 -0.410120 0.154880 -2.733800 -7.002980 
-0.191090 18.738840 -3.006040 5.764337 -9.768600 -45.801876 -15.484570 13.524775 4.261607 -1.576756 0.514853 32.743468 -12.944279 10.863750 19.109140 -2.834111 12.845388 -0.131229 6.982910 1.625010 5.216000 18.077479 -9.951962 2.166725 -8.328279 -0.410413 20.407826 0.654257 -7.487515 16.452890 -1.583091 -4.736872 9.573071 4.614560 -4.589870 1.008970 -2.839557 -4.443043 -7.503248 -6.919397 7.232704 62.766875 0.991865 8.446299 56.278282 -3.857413 18.108640 -1.797835 26.286658 0.765136 23.934971 -25.672920 9.639730 -79.644290 16.826482 -53.606286 -5.868571 64.316183 -20.364931 -28.725617 80.163716 -25.612937 -22.494704 -6.062592 1.333168 3.318600 1.060500 0.203900 2.320630 -14.051386 43.805647 18.461165 29.474261 38.149866 -45.988683 -21.654804 61.871183 -20.173269 -8.456005 -2.712567 -0.616260 0.238710 -2.660290 -7.166540 
